<?xml version="1.0" encoding="utf-8"?>
<!-- Generator: Adobe Illustrator 21.0.0, SVG Export Plug-In . SVG Version: 6.00 Build 0)  -->
<svg version="1.1" id="Layer_1" xmlns="http://www.w3.org/2000/svg" xmlns:xlink="http://www.w3.org/1999/xlink" x="0px" y="0px"
	 viewBox="0 0 256 256" style="enable-background:new 0 0 256 256;" xml:space="preserve">
<style type="text/css">
	.st0{fill:#C6C6C6;}
</style>
<path class="st0" d="M128,1C57.9,1,1,57.9,1,128s56.9,127,127,127s127-56.9,127-127S198.1,1,128,1z M128,229.6
	c-56.1,0-101.6-45.5-101.6-101.6S71.9,26.4,128,26.4S229.6,71.9,229.6,128S184.1,229.6,128,229.6z"/>
<path class="st0" d="M128,51.8c-42.2,0-76.2,34-76.2,76.2s34,76.2,76.2,76.2s76.2-34,76.2-76.2S170.2,51.8,128,51.8z M128,178.8
	c-27.9,0-50.8-22.9-50.8-50.8s22.9-50.8,50.8-50.8s50.8,22.9,50.8,50.8S155.9,178.8,128,178.8z"/>
<circle class="st0" cx="128" cy="128" r="25.4"/>
</svg>
