<?xml version="1.0" encoding="utf-8"?>
<!-- Generator: Adobe Illustrator 21.0.0, SVG Export Plug-In . SVG Version: 6.00 Build 0)  -->
<svg version="1.1" id="Layer_1" xmlns="http://www.w3.org/2000/svg" xmlns:xlink="http://www.w3.org/1999/xlink" x="0px" y="0px"
	 viewBox="0 0 256 64" style="enable-background:new 0 0 256 64;" xml:space="preserve">
<style type="text/css">
	.st0{fill:#C6C6C6;}
</style>
<path class="st0" d="M32,4C16.5,4,4,16.5,4,32s12.5,28,28,28s28-12.5,28-28S47.5,4,32,4z M32,54.4c-12.4,0-22.4-10-22.4-22.4
	S19.6,9.6,32,9.6s22.4,10,22.4,22.4S44.4,54.4,32,54.4z"/>
<path class="st0" d="M32,15.2c-9.3,0-16.8,7.5-16.8,16.8S22.7,48.8,32,48.8S48.8,41.3,48.8,32S41.3,15.2,32,15.2z M32,43.2
	c-6.2,0-11.2-5-11.2-11.2s5-11.2,11.2-11.2s11.2,5,11.2,11.2S38.2,43.2,32,43.2z"/>
<circle class="st0" cx="32" cy="32" r="5.6"/>
<g>
	<path class="st0" d="M85.4,22.8c-1.8-0.8-3.9-1.3-6-1.3c-2,0-4.6,0.9-4.6,4.1c0,5.1,12.9,2.9,12.9,12.8c0,6.4-5.1,8.9-11,8.9
		c-3.2,0-4.6-0.4-7.5-1.1l0.5-5.3c2,1.1,4.3,1.8,6.6,1.8c2.2,0,5.2-1.1,5.2-3.8c0-5.6-12.9-3.3-12.9-13c0-6.6,5.1-8.9,10.2-8.9
		c2.5,0,4.9,0.3,7,1.1L85.4,22.8z"/>
	<path class="st0" d="M111.7,46.8h-5.3v-2.9h-0.1c-1.7,2.1-4.2,3.4-7.1,3.4c-5.1,0-7.4-3.6-7.4-8.5V25.1h5.6v11.6
		c0,2.6,0,6.2,3.7,6.2c4.1,0,5-4.4,5-7.2V25.1h5.6V46.8z"/>
	<path class="st0" d="M116.9,25.1h5.4v3.1h0.1c1.3-2.1,3.4-3.6,6.7-3.6c6.6,0,9.1,5.3,9.1,11.3c0,5.9-2.4,11.4-9.2,11.4
		c-2.4,0-4.4-0.6-6.3-3h-0.1v11.3h-5.6V25.1z M122.5,35.9c0,3.1,1.2,7,5,7c3.7,0,4.7-4,4.7-7c0-2.9-1-6.9-4.7-6.9
		C124,29,122.5,32.8,122.5,35.9z"/>
	<path class="st0" d="M159.8,45.5c-2.1,1.1-4.4,1.7-7.4,1.7c-7.1,0-11.3-4.1-11.3-11.2c0-6.3,3.3-11.4,10-11.4
		c8,0,10.3,5.5,10.3,13.1h-15c0.3,3.5,2.7,5.5,6.2,5.5c2.7,0,5.1-1,7.2-2.2V45.5z M156,33.8c-0.2-2.7-1.4-5.1-4.6-5.1
		c-3.2,0-4.7,2.2-5,5.1H156z"/>
	<path class="st0" d="M165.5,25.1h5V30h0.1c0.3-2,2.6-5.4,5.9-5.4c0.5,0,1.1,0,1.7,0.2v5.7c-0.5-0.3-1.5-0.5-2.5-0.5
		c-4.6,0-4.6,5.7-4.6,8.8v7.9h-5.6V25.1z"/>
	<path class="st0" d="M213.1,46.3c-2.1,0.5-4.5,0.9-6.7,0.9c-9.5,0-16.1-4.7-16.1-14.7c0-10,6.1-15.7,16.1-15.7
		c1.9,0,4.5,0.4,6.6,1.2l-0.4,5c-2.2-1.3-4.2-1.6-6.3-1.6c-6,0-9.8,4.6-9.8,10.6c0,6,3.7,10.5,10,10.5c2.3,0,5-0.5,6.4-1.2
		L213.1,46.3z"/>
</g>
</svg>
